<?xml version="1.0" encoding="utf-8" standalone="no"?>
<!DOCTYPE svg PUBLIC "-//W3C//DTD SVG 1.1//EN"
  "http://www.w3.org/Graphics/SVG/1.1/DTD/svg11.dtd">
<!-- Created with matplotlib (http://matplotlib.org/) -->
<svg height="345.6pt" version="1.1" viewBox="0 0 460.8 345.6" width="460.8pt" xmlns="http://www.w3.org/2000/svg" xmlns:xlink="http://www.w3.org/1999/xlink">
 <defs>
  <style type="text/css">
*{stroke-linecap:butt;stroke-linejoin:round;}
  </style>
 </defs>
 <g id="figure_1">
  <g id="patch_1">
   <path d="M 0 345.6 
L 460.8 345.6 
L 460.8 0 
L 0 0 
z
" style="fill:#ffffff;"/>
  </g>
  <g id="axes_1">
   <g id="patch_2">
    <path clip-path="url(#p664dd96ec5)" d="M 250.034559 244.669187 
Q 246.712578 244.669187 245.034534 247.943419 
Q 243.363311 251.21083 243.363311 257.779758 
Q 243.363311 264.321401 245.034534 267.595633 
Q 246.712578 270.869866 250.034559 270.869866 
Q 253.383826 270.869866 255.055049 267.595633 
Q 256.733093 264.321401 256.733093 257.779758 
Q 256.733093 251.21083 255.055049 247.943419 
Q 253.383826 244.669187 250.034559 244.669187 
z
M 250.034559 241.258528 
Q 255.389293 241.258528 258.213318 245.494566 
Q 261.037344 249.723783 261.037344 257.779758 
Q 261.037344 265.81527 258.213318 270.051308 
Q 255.389293 274.280524 250.034559 274.280524 
Q 244.686647 274.280524 241.862621 270.051308 
Q 239.038596 265.81527 239.038596 257.779758 
Q 239.038596 249.723783 241.862621 245.494566 
Q 244.686647 241.258528 250.034559 241.258528 
z
" style="fill:none;stroke:#000000;stroke-linejoin:miter;"/>
   </g>
   <g id="patch_3">
    <path clip-path="url(#p664dd96ec5)" d="M 315.05045 142.776402 
L 322.083228 142.776402 
L 322.083228 118.492514 
L 314.42971 120.02731 
L 314.42971 116.105053 
L 322.0423 114.570256 
L 326.346551 114.570256 
L 326.346551 142.776402 
L 333.379329 142.776402 
L 333.379329 146.398521 
L 315.05045 146.398521 
z
" style="fill:none;stroke:#000000;stroke-linejoin:miter;"/>
   </g>
   <g id="patch_4">
    <path clip-path="url(#p664dd96ec5)" d="M 171.062253 142.776404 
L 186.089614 142.776404 
L 186.089614 146.398523 
L 165.884873 146.398523 
L 165.884873 142.776404 
Q 168.333726 140.238874 172.562943 135.968729 
Q 176.798981 131.691764 177.88357 130.450284 
Q 179.950429 128.131036 180.768987 126.521205 
Q 181.594367 124.911375 181.594367 123.356114 
Q 181.594367 120.818584 179.814003 119.222396 
Q 178.033639 117.619387 175.175507 117.619387 
Q 173.149576 117.619387 170.898541 118.321982 
Q 168.654328 119.024578 166.096334 120.457054 
L 166.096334 116.105054 
Q 168.695256 115.061393 170.953112 114.52933 
Q 173.217789 113.997267 175.093651 113.997267 
Q 180.039106 113.997267 182.979094 116.473405 
Q 185.919082 118.942722 185.919082 123.07644 
Q 185.919082 125.04098 185.182379 126.800879 
Q 184.452498 128.553958 182.508423 130.941419 
Q 181.97636 131.562159 179.118228 134.515789 
Q 176.266918 137.469419 171.062253 142.776404 
z
" style="fill:none;stroke:#000000;stroke-linejoin:miter;"/>
   </g>
   <g id="line2d_1">
    <path clip-path="url(#p664dd96ec5)" d="M 127.018928 251.831571 
L 141.571071 251.831571 
" style="fill:none;stroke:#ff00ff;stroke-linecap:square;stroke-width:1.5;"/>
   </g>
   <g id="line2d_2">
    <path clip-path="url(#p664dd96ec5)" d="M 141.571071 251.831571 
L 141.571072 295.488 
" style="fill:none;stroke:#ff00ff;stroke-linecap:square;stroke-width:1.5;"/>
   </g>
   <g id="line2d_3">
    <path clip-path="url(#p664dd96ec5)" d="M 141.571072 295.488 
L 330.74893 295.487997 
" style="fill:none;stroke:#ff00ff;stroke-linecap:square;stroke-width:1.5;"/>
   </g>
   <g id="line2d_4">
    <path clip-path="url(#p664dd96ec5)" d="M 330.74893 295.487997 
L 330.748929 251.831568 
" style="fill:none;stroke:#ff00ff;stroke-linecap:square;stroke-width:1.5;"/>
   </g>
   <g id="line2d_5">
    <path clip-path="url(#p664dd96ec5)" d="M 141.571071 251.831571 
L 330.748929 251.831568 
" style="fill:none;stroke:#00ffff;stroke-linecap:square;stroke-width:1.5;"/>
   </g>
   <g id="line2d_6">
    <path clip-path="url(#p664dd96ec5)" d="M 330.748929 251.831568 
L 345.301072 251.831568 
" style="fill:none;stroke:#ff00ff;stroke-linecap:square;stroke-width:1.5;"/>
   </g>
   <g id="line2d_7">
    <path clip-path="url(#p664dd96ec5)" d="M 152.485179 262.745678 
L 188.865536 262.745678 
" style="fill:none;stroke:#ff00ff;stroke-linecap:square;stroke-width:1.5;"/>
   </g>
   <g id="line2d_8">
    <path clip-path="url(#p664dd96ec5)" d="M 283.454465 262.745676 
L 319.834822 262.745676 
" style="fill:none;stroke:#ff00ff;stroke-linecap:square;stroke-width:1.5;"/>
   </g>
   <g id="line2d_9">
    <path clip-path="url(#p664dd96ec5)" d="M 345.301072 251.831568 
L 338.025001 239.229043 
" style="fill:none;stroke:#ff00ff;stroke-linecap:square;stroke-width:1.5;"/>
   </g>
   <g id="line2d_10">
    <path clip-path="url(#p664dd96ec5)" d="M 338.025001 239.229043 
L 375.832577 217.400828 
" style="fill:none;stroke:#ff00ff;stroke-linecap:square;stroke-width:1.5;"/>
   </g>
   <g id="line2d_11">
    <path clip-path="url(#p664dd96ec5)" d="M 375.832577 217.400828 
L 281.243648 53.568 
" style="fill:none;stroke:#ff00ff;stroke-linecap:square;stroke-width:1.5;"/>
   </g>
   <g id="line2d_12">
    <path clip-path="url(#p664dd96ec5)" d="M 281.243648 53.568 
L 243.436071 75.396215 
" style="fill:none;stroke:#ff00ff;stroke-linecap:square;stroke-width:1.5;"/>
   </g>
   <g id="line2d_13">
    <path clip-path="url(#p664dd96ec5)" d="M 338.025001 239.229043 
L 243.436071 75.396215 
" style="fill:none;stroke:#00ffff;stroke-linecap:square;stroke-width:1.5;"/>
   </g>
   <g id="line2d_14">
    <path clip-path="url(#p664dd96ec5)" d="M 243.436071 75.396215 
L 236.16 62.793689 
" style="fill:none;stroke:#ff00ff;stroke-linecap:square;stroke-width:1.5;"/>
   </g>
   <g id="line2d_15">
    <path clip-path="url(#p664dd96ec5)" d="M 342.019841 224.320095 
L 323.829662 192.813781 
" style="fill:none;stroke:#ff00ff;stroke-linecap:square;stroke-width:1.5;"/>
   </g>
   <g id="line2d_16">
    <path clip-path="url(#p664dd96ec5)" d="M 276.535198 110.897369 
L 258.345019 79.391055 
" style="fill:none;stroke:#ff00ff;stroke-linecap:square;stroke-width:1.5;"/>
   </g>
   <g id="line2d_17">
    <path clip-path="url(#p664dd96ec5)" d="M 236.16 62.793689 
L 228.883928 75.396215 
" style="fill:none;stroke:#ff00ff;stroke-linecap:square;stroke-width:1.5;"/>
   </g>
   <g id="line2d_18">
    <path clip-path="url(#p664dd96ec5)" d="M 228.883928 75.396215 
L 191.076352 53.568 
" style="fill:none;stroke:#ff00ff;stroke-linecap:square;stroke-width:1.5;"/>
   </g>
   <g id="line2d_19">
    <path clip-path="url(#p664dd96ec5)" d="M 191.076352 53.568 
L 96.487423 217.400831 
" style="fill:none;stroke:#ff00ff;stroke-linecap:square;stroke-width:1.5;"/>
   </g>
   <g id="line2d_20">
    <path clip-path="url(#p664dd96ec5)" d="M 96.487423 217.400831 
L 134.295 239.229046 
" style="fill:none;stroke:#ff00ff;stroke-linecap:square;stroke-width:1.5;"/>
   </g>
   <g id="line2d_21">
    <path clip-path="url(#p664dd96ec5)" d="M 228.883928 75.396215 
L 134.295 239.229046 
" style="fill:none;stroke:#00ffff;stroke-linecap:square;stroke-width:1.5;"/>
   </g>
   <g id="line2d_22">
    <path clip-path="url(#p664dd96ec5)" d="M 134.295 239.229046 
L 127.018928 251.831571 
" style="fill:none;stroke:#ff00ff;stroke-linecap:square;stroke-width:1.5;"/>
   </g>
   <g id="line2d_23">
    <path clip-path="url(#p664dd96ec5)" d="M 213.974981 79.391055 
L 195.784802 110.897369 
" style="fill:none;stroke:#ff00ff;stroke-linecap:square;stroke-width:1.5;"/>
   </g>
   <g id="line2d_24">
    <path clip-path="url(#p664dd96ec5)" d="M 148.490338 192.813784 
L 130.300159 224.320098 
" style="fill:none;stroke:#ff00ff;stroke-linecap:square;stroke-width:1.5;"/>
   </g>
  </g>
 </g>
 <defs>
  <clipPath id="p664dd96ec5">
   <rect height="266.112" width="307.279669" x="82.520165" y="41.472"/>
  </clipPath>
 </defs>
</svg>
