<?xml version="1.0" encoding="utf-8" standalone="no"?>
<!DOCTYPE svg PUBLIC "-//W3C//DTD SVG 1.1//EN"
  "http://www.w3.org/Graphics/SVG/1.1/DTD/svg11.dtd">
<!-- Created with matplotlib (http://matplotlib.org/) -->
<svg height="345.6pt" version="1.1" viewBox="0 0 460.8 345.6" width="460.8pt" xmlns="http://www.w3.org/2000/svg" xmlns:xlink="http://www.w3.org/1999/xlink">
 <defs>
  <style type="text/css">
*{stroke-linecap:butt;stroke-linejoin:round;}
  </style>
 </defs>
 <g id="figure_1">
  <g id="patch_1">
   <path d="M 0 345.6 
L 460.8 345.6 
L 460.8 0 
L 0 0 
z
" style="fill:#ffffff;"/>
  </g>
  <g id="axes_1">
   <g id="patch_2">
    <path clip-path="url(#p56aaf7efbd)" d="M 241.576126 270.037667 
L 248.608903 270.037667 
L 248.608903 245.753779 
L 240.955386 247.288575 
L 240.955386 243.366318 
L 248.567975 241.831522 
L 252.872226 241.831522 
L 252.872226 270.037667 
L 259.905004 270.037667 
L 259.905004 273.659786 
L 241.576126 273.659786 
z
" style="fill:none;stroke:#000000;stroke-linejoin:miter;"/>
   </g>
   <g id="patch_3">
    <path clip-path="url(#p56aaf7efbd)" d="M 326.135088 118.321983 
L 315.261909 135.313884 
L 326.135088 135.313884 
z
M 325.002749 114.570259 
L 330.418875 114.570259 
L 330.418875 135.313884 
L 334.961872 135.313884 
L 334.961872 138.895075 
L 330.418875 138.895075 
L 330.418875 146.398524 
L 326.135088 146.398524 
L 326.135088 138.895075 
L 311.769395 138.895075 
L 311.769395 134.740893 
z
" style="fill:none;stroke:#000000;stroke-linejoin:miter;"/>
   </g>
   <g id="patch_4">
    <path clip-path="url(#p56aaf7efbd)" d="M 167.399207 114.570259 
L 184.30243 114.570259 
L 184.30243 118.1992 
L 171.341929 118.1992 
L 171.341929 125.995965 
Q 172.276449 125.675363 173.210969 125.518473 
Q 174.152311 125.361582 175.093653 125.361582 
Q 180.421101 125.361582 183.531622 128.281106 
Q 186.648963 131.20063 186.648963 136.187012 
Q 186.648963 141.323464 183.449766 144.174774 
Q 180.250568 147.019263 174.431985 147.019263 
Q 172.426518 147.019263 170.346016 146.678197 
Q 168.272336 146.337132 166.055408 145.655 
L 166.055408 141.323464 
Q 167.972198 142.367125 170.018593 142.878724 
Q 172.064988 143.390323 174.343308 143.390323 
Q 178.03364 143.390323 180.182355 141.453069 
Q 182.337891 139.515815 182.337891 136.187012 
Q 182.337891 132.865031 180.182355 130.927777 
Q 178.03364 128.983702 174.343308 128.983702 
Q 172.617515 128.983702 170.898543 129.365695 
Q 169.186392 129.747689 167.399207 130.559426 
z
" style="fill:none;stroke:#000000;stroke-linejoin:miter;"/>
   </g>
   <g id="line2d_1">
    <path clip-path="url(#p56aaf7efbd)" d="M 127.018931 251.831572 
L 141.571073 251.831572 
" style="fill:none;stroke:#ff00ff;stroke-linecap:square;stroke-width:1.5;"/>
   </g>
   <g id="line2d_2">
    <path clip-path="url(#p56aaf7efbd)" d="M 141.571073 251.831572 
L 141.571073 295.488 
" style="fill:none;stroke:#ff00ff;stroke-linecap:square;stroke-width:1.5;"/>
   </g>
   <g id="line2d_3">
    <path clip-path="url(#p56aaf7efbd)" d="M 141.571073 295.488 
L 330.748927 295.488 
" style="fill:none;stroke:#ff00ff;stroke-linecap:square;stroke-width:1.5;"/>
   </g>
   <g id="line2d_4">
    <path clip-path="url(#p56aaf7efbd)" d="M 330.748927 295.488 
L 330.748927 251.831572 
" style="fill:none;stroke:#ff00ff;stroke-linecap:square;stroke-width:1.5;"/>
   </g>
   <g id="line2d_5">
    <path clip-path="url(#p56aaf7efbd)" d="M 141.571073 251.831572 
L 330.748927 251.831572 
" style="fill:none;stroke:#00ffff;stroke-linecap:square;stroke-width:1.5;"/>
   </g>
   <g id="line2d_6">
    <path clip-path="url(#p56aaf7efbd)" d="M 330.748927 251.831572 
L 345.301069 251.831572 
" style="fill:none;stroke:#ff00ff;stroke-linecap:square;stroke-width:1.5;"/>
   </g>
   <g id="line2d_7">
    <path clip-path="url(#p56aaf7efbd)" d="M 152.48518 262.745679 
L 188.865537 262.745679 
" style="fill:none;stroke:#00ffff;stroke-linecap:square;stroke-width:1.5;"/>
   </g>
   <g id="line2d_8">
    <path clip-path="url(#p56aaf7efbd)" d="M 188.865537 262.745679 
L 192.503572 264.200893 
" style="fill:none;stroke:#ff00ff;stroke-linecap:square;stroke-width:1.5;"/>
   </g>
   <g id="line2d_9">
    <path clip-path="url(#p56aaf7efbd)" d="M 192.503572 264.200893 
L 185.227501 284.573893 
" style="fill:none;stroke:#ff00ff;stroke-linecap:square;stroke-width:1.5;"/>
   </g>
   <g id="line2d_10">
    <path clip-path="url(#p56aaf7efbd)" d="M 185.227501 284.573893 
L 156.123216 284.573893 
" style="fill:none;stroke:#ff00ff;stroke-linecap:square;stroke-width:1.5;"/>
   </g>
   <g id="line2d_11">
    <path clip-path="url(#p56aaf7efbd)" d="M 156.123216 284.573893 
L 148.847145 264.200893 
" style="fill:none;stroke:#ff00ff;stroke-linecap:square;stroke-width:1.5;"/>
   </g>
   <g id="line2d_12">
    <path clip-path="url(#p56aaf7efbd)" d="M 148.847145 264.200893 
L 152.48518 262.745679 
" style="fill:none;stroke:#ff00ff;stroke-linecap:square;stroke-width:1.5;"/>
   </g>
   <g id="line2d_13">
    <path clip-path="url(#p56aaf7efbd)" d="M 283.454463 262.745679 
L 319.83482 262.745679 
" style="fill:none;stroke:#00ffff;stroke-linecap:square;stroke-width:1.5;"/>
   </g>
   <g id="line2d_14">
    <path clip-path="url(#p56aaf7efbd)" d="M 319.83482 262.745679 
L 323.472855 264.200893 
" style="fill:none;stroke:#ff00ff;stroke-linecap:square;stroke-width:1.5;"/>
   </g>
   <g id="line2d_15">
    <path clip-path="url(#p56aaf7efbd)" d="M 323.472855 264.200893 
L 316.196784 284.573893 
" style="fill:none;stroke:#ff00ff;stroke-linecap:square;stroke-width:1.5;"/>
   </g>
   <g id="line2d_16">
    <path clip-path="url(#p56aaf7efbd)" d="M 316.196784 284.573893 
L 287.092499 284.573893 
" style="fill:none;stroke:#ff00ff;stroke-linecap:square;stroke-width:1.5;"/>
   </g>
   <g id="line2d_17">
    <path clip-path="url(#p56aaf7efbd)" d="M 287.092499 284.573893 
L 279.816428 264.200893 
" style="fill:none;stroke:#ff00ff;stroke-linecap:square;stroke-width:1.5;"/>
   </g>
   <g id="line2d_18">
    <path clip-path="url(#p56aaf7efbd)" d="M 279.816428 264.200893 
L 283.454463 262.745679 
" style="fill:none;stroke:#ff00ff;stroke-linecap:square;stroke-width:1.5;"/>
   </g>
   <g id="line2d_19">
    <path clip-path="url(#p56aaf7efbd)" d="M 345.301069 251.831572 
L 338.024998 239.229047 
" style="fill:none;stroke:#ff00ff;stroke-linecap:square;stroke-width:1.5;"/>
   </g>
   <g id="line2d_20">
    <path clip-path="url(#p56aaf7efbd)" d="M 338.024998 239.229047 
L 375.832574 217.400834 
" style="fill:none;stroke:#ff00ff;stroke-linecap:square;stroke-width:1.5;"/>
   </g>
   <g id="line2d_21">
    <path clip-path="url(#p56aaf7efbd)" d="M 375.832574 217.400834 
L 281.243647 53.568 
" style="fill:none;stroke:#ff00ff;stroke-linecap:square;stroke-width:1.5;"/>
   </g>
   <g id="line2d_22">
    <path clip-path="url(#p56aaf7efbd)" d="M 281.243647 53.568 
L 243.436071 75.396213 
" style="fill:none;stroke:#ff00ff;stroke-linecap:square;stroke-width:1.5;"/>
   </g>
   <g id="line2d_23">
    <path clip-path="url(#p56aaf7efbd)" d="M 338.024998 239.229047 
L 243.436071 75.396213 
" style="fill:none;stroke:#00ffff;stroke-linecap:square;stroke-width:1.5;"/>
   </g>
   <g id="line2d_24">
    <path clip-path="url(#p56aaf7efbd)" d="M 243.436071 75.396213 
L 236.16 62.793688 
" style="fill:none;stroke:#ff00ff;stroke-linecap:square;stroke-width:1.5;"/>
   </g>
   <g id="line2d_25">
    <path clip-path="url(#p56aaf7efbd)" d="M 342.019839 224.3201 
L 323.829661 192.813787 
" style="fill:none;stroke:#00ffff;stroke-linecap:square;stroke-width:1.5;"/>
   </g>
   <g id="line2d_26">
    <path clip-path="url(#p56aaf7efbd)" d="M 323.829661 192.813787 
L 323.270896 188.935548 
" style="fill:none;stroke:#ff00ff;stroke-linecap:square;stroke-width:1.5;"/>
   </g>
   <g id="line2d_27">
    <path clip-path="url(#p56aaf7efbd)" d="M 323.270896 188.935548 
L 344.552467 185.050311 
" style="fill:none;stroke:#ff00ff;stroke-linecap:square;stroke-width:1.5;"/>
   </g>
   <g id="line2d_28">
    <path clip-path="url(#p56aaf7efbd)" d="M 344.552467 185.050311 
L 359.104609 210.255362 
" style="fill:none;stroke:#ff00ff;stroke-linecap:square;stroke-width:1.5;"/>
   </g>
   <g id="line2d_29">
    <path clip-path="url(#p56aaf7efbd)" d="M 359.104609 210.255362 
L 345.099109 226.743124 
" style="fill:none;stroke:#ff00ff;stroke-linecap:square;stroke-width:1.5;"/>
   </g>
   <g id="line2d_30">
    <path clip-path="url(#p56aaf7efbd)" d="M 345.099109 226.743124 
L 342.019839 224.3201 
" style="fill:none;stroke:#ff00ff;stroke-linecap:square;stroke-width:1.5;"/>
   </g>
   <g id="line2d_31">
    <path clip-path="url(#p56aaf7efbd)" d="M 276.535196 110.897367 
L 258.345018 79.391054 
" style="fill:none;stroke:#00ffff;stroke-linecap:square;stroke-width:1.5;"/>
   </g>
   <g id="line2d_32">
    <path clip-path="url(#p56aaf7efbd)" d="M 258.345018 79.391054 
L 257.786253 75.512815 
" style="fill:none;stroke:#ff00ff;stroke-linecap:square;stroke-width:1.5;"/>
   </g>
   <g id="line2d_33">
    <path clip-path="url(#p56aaf7efbd)" d="M 257.786253 75.512815 
L 279.067824 71.627579 
" style="fill:none;stroke:#ff00ff;stroke-linecap:square;stroke-width:1.5;"/>
   </g>
   <g id="line2d_34">
    <path clip-path="url(#p56aaf7efbd)" d="M 279.067824 71.627579 
L 293.619966 96.832629 
" style="fill:none;stroke:#ff00ff;stroke-linecap:square;stroke-width:1.5;"/>
   </g>
   <g id="line2d_35">
    <path clip-path="url(#p56aaf7efbd)" d="M 293.619966 96.832629 
L 279.614466 113.320391 
" style="fill:none;stroke:#ff00ff;stroke-linecap:square;stroke-width:1.5;"/>
   </g>
   <g id="line2d_36">
    <path clip-path="url(#p56aaf7efbd)" d="M 279.614466 113.320391 
L 276.535196 110.897367 
" style="fill:none;stroke:#ff00ff;stroke-linecap:square;stroke-width:1.5;"/>
   </g>
   <g id="line2d_37">
    <path clip-path="url(#p56aaf7efbd)" d="M 236.16 62.793688 
L 228.883929 75.396213 
" style="fill:none;stroke:#ff00ff;stroke-linecap:square;stroke-width:1.5;"/>
   </g>
   <g id="line2d_38">
    <path clip-path="url(#p56aaf7efbd)" d="M 228.883929 75.396213 
L 191.076353 53.568 
" style="fill:none;stroke:#ff00ff;stroke-linecap:square;stroke-width:1.5;"/>
   </g>
   <g id="line2d_39">
    <path clip-path="url(#p56aaf7efbd)" d="M 191.076353 53.568 
L 96.487426 217.400834 
" style="fill:none;stroke:#ff00ff;stroke-linecap:square;stroke-width:1.5;"/>
   </g>
   <g id="line2d_40">
    <path clip-path="url(#p56aaf7efbd)" d="M 96.487426 217.400834 
L 134.295002 239.229047 
" style="fill:none;stroke:#ff00ff;stroke-linecap:square;stroke-width:1.5;"/>
   </g>
   <g id="line2d_41">
    <path clip-path="url(#p56aaf7efbd)" d="M 228.883929 75.396213 
L 134.295002 239.229047 
" style="fill:none;stroke:#00ffff;stroke-linecap:square;stroke-width:1.5;"/>
   </g>
   <g id="line2d_42">
    <path clip-path="url(#p56aaf7efbd)" d="M 134.295002 239.229047 
L 127.018931 251.831572 
" style="fill:none;stroke:#ff00ff;stroke-linecap:square;stroke-width:1.5;"/>
   </g>
   <g id="line2d_43">
    <path clip-path="url(#p56aaf7efbd)" d="M 213.974982 79.391054 
L 195.784804 110.897367 
" style="fill:none;stroke:#ff00ff;stroke-linecap:square;stroke-width:1.5;"/>
   </g>
   <g id="line2d_44">
    <path clip-path="url(#p56aaf7efbd)" d="M 148.490339 192.813787 
L 130.300161 224.3201 
" style="fill:none;stroke:#ff00ff;stroke-linecap:square;stroke-width:1.5;"/>
   </g>
  </g>
 </g>
 <defs>
  <clipPath id="p56aaf7efbd">
   <rect height="266.112" width="307.279663" x="82.520169" y="41.472"/>
  </clipPath>
 </defs>
</svg>
